<?xml version="1.0" encoding="UTF-8" standalone="no"?>
<!DOCTYPE svg PUBLIC "-//W3C//DTD SVG 1.1//EN"
 "http://www.w3.org/Graphics/SVG/1.1/DTD/svg11.dtd">
<!-- Generated by graphviz version 5.0.0 (20220707.1540)
 -->
<!-- Title: dependency&#45;cruiser output Pages: 1 -->
<svg width="758pt" height="570pt"
 viewBox="0.00 0.00 758.25 569.82" xmlns="http://www.w3.org/2000/svg" xmlns:xlink="http://www.w3.org/1999/xlink">
<g id="graph0" class="graph" transform="scale(1 1) rotate(0) translate(4 565.82)">
<title>dependency&#45;cruiser output</title>
<polygon fill="white" stroke="transparent" points="-4,4 -4,-565.82 754.25,-565.82 754.25,4 -4,4"/>
<g id="clust1" class="cluster">
<title>cluster_app</title>
<path fill="#ffffff" stroke="black" stroke-width="2" d="M20,-265.42C20,-265.42 219.08,-265.42 219.08,-265.42 225.08,-265.42 231.08,-271.42 231.08,-277.42 231.08,-277.42 231.08,-523.42 231.08,-523.42 231.08,-529.42 225.08,-535.42 219.08,-535.42 219.08,-535.42 20,-535.42 20,-535.42 14,-535.42 8,-529.42 8,-523.42 8,-523.42 8,-277.42 8,-277.42 8,-271.42 14,-265.42 20,-265.42"/>
<text text-anchor="middle" x="119.54" y="-523.32" font-family="Helvetica,sans-Serif" font-weight="bold" font-size="9.00">app</text>
</g>
<g id="clust2" class="cluster">
<title>cluster_components</title>
<path fill="#ffffff" stroke="black" stroke-width="2" d="M117.54,-111.42C117.54,-111.42 498.7,-111.42 498.7,-111.42 504.7,-111.42 510.7,-117.42 510.7,-123.42 510.7,-123.42 510.7,-245.42 510.7,-245.42 510.7,-251.42 504.7,-257.42 498.7,-257.42 498.7,-257.42 117.54,-257.42 117.54,-257.42 111.54,-257.42 105.54,-251.42 105.54,-245.42 105.54,-245.42 105.54,-123.42 105.54,-123.42 105.54,-117.42 111.54,-111.42 117.54,-111.42"/>
<text text-anchor="middle" x="308.12" y="-245.32" font-family="Helvetica,sans-Serif" font-weight="bold" font-size="9.00">components</text>
</g>
<g id="clust3" class="cluster">
<title>cluster_lib</title>
<path fill="#ffffff" stroke="black" stroke-width="2" d="M530.7,-95.42C530.7,-95.42 730.25,-95.42 730.25,-95.42 736.25,-95.42 742.25,-101.42 742.25,-107.42 742.25,-107.42 742.25,-229.42 742.25,-229.42 742.25,-235.42 736.25,-241.42 730.25,-241.42 730.25,-241.42 530.7,-241.42 530.7,-241.42 524.7,-241.42 518.7,-235.42 518.7,-229.42 518.7,-229.42 518.7,-107.42 518.7,-107.42 518.7,-101.42 524.7,-95.42 530.7,-95.42"/>
<text text-anchor="middle" x="630.48" y="-229.32" font-family="Helvetica,sans-Serif" font-weight="bold" font-size="9.00">lib</text>
</g>
<!-- app/(auth) -->
<g id="node1" class="node">
<title>app/(auth)</title>
<g id="a_node1"><a xlink:href="app/(auth)" xlink:title="(auth)">
<polygon fill="#ffffcc" stroke="black" points="85.3,-415.72 30.31,-415.72 28.24,-413.66 28.24,-397.12 83.23,-397.12 85.3,-399.19 85.3,-415.72"/>
<polyline fill="none" stroke="black" points="83.23,-413.66 28.24,-413.66 "/>
<polyline fill="none" stroke="black" points="83.23,-413.66 83.23,-397.12 "/>
<polyline fill="none" stroke="black" points="83.23,-413.66 85.3,-415.72 "/>
<text text-anchor="middle" x="56.77" y="-403.72" font-family="Helvetica,sans-Serif" font-size="9.00">app/(auth)</text>
</a>
</g>
</g>
<!-- components/ui -->
<g id="node2" class="node">
<title>components/ui</title>
<g id="a_node2"><a xlink:href="components/ui" xlink:title="ui">
<polygon fill="#ffffcc" stroke="black" points="502.47,-152.72 430.47,-152.72 428.4,-150.66 428.4,-134.12 500.4,-134.12 502.47,-136.19 502.47,-152.72"/>
<polyline fill="none" stroke="black" points="500.4,-150.66 428.4,-150.66 "/>
<polyline fill="none" stroke="black" points="500.4,-150.66 500.4,-134.12 "/>
<polyline fill="none" stroke="black" points="500.4,-150.66 502.47,-152.72 "/>
<text text-anchor="middle" x="465.44" y="-140.72" font-family="Helvetica,sans-Serif" font-size="9.00">components/ui</text>
</a>
</g>
</g>
<!-- app/(auth)&#45;&gt;components/ui -->
<g id="edge1" class="edge">
<title>app/(auth)&#45;&gt;components/ui</title>
<path fill="none" stroke="#000000" stroke-width="2" stroke-opacity="0.200000" d="M85.53,-400.13C90.24,-397.83 94.56,-394.7 97.54,-390.42 107.05,-376.73 93.59,-102.05 105.54,-90.42 154.83,-42.42 352.09,-62.94 415.17,-90.42 432.9,-98.15 447.13,-115.76 455.65,-128.57"/>
<polygon fill="#000000" fill-opacity="0.200000" stroke="#000000" stroke-width="2" stroke-opacity="0.200000" points="453.94,-129.8 458.95,-133.72 457.48,-127.53 453.94,-129.8"/>
</g>
<!-- lib/utils.ts -->
<g id="node21" class="node">
<title>lib/utils.ts</title>
<g id="a_node21"><a xlink:href="lib/utils.ts" xlink:title="utils.ts">
<path fill="#ddfeff" stroke="black" d="M584.01,-152.72C584.01,-152.72 542.42,-152.72 542.42,-152.72 539.31,-152.72 536.21,-149.62 536.21,-146.52 536.21,-146.52 536.21,-140.32 536.21,-140.32 536.21,-137.22 539.31,-134.12 542.42,-134.12 542.42,-134.12 584.01,-134.12 584.01,-134.12 587.11,-134.12 590.21,-137.22 590.21,-140.32 590.21,-140.32 590.21,-146.52 590.21,-146.52 590.21,-149.62 587.11,-152.72 584.01,-152.72"/>
<text text-anchor="middle" x="563.21" y="-140.72" font-family="Helvetica,sans-Serif" font-size="9.00">lib/utils.ts</text>
</a>
</g>
</g>
<!-- components/ui&#45;&gt;lib/utils.ts -->
<g id="edge22" class="edge">
<title>components/ui&#45;&gt;lib/utils.ts</title>
<path fill="none" stroke="#000000" stroke-width="2" stroke-opacity="0.200000" d="M502.65,-143.42C511.6,-143.42 521.13,-143.42 529.88,-143.42"/>
<polygon fill="#000000" fill-opacity="0.200000" stroke="#000000" stroke-width="2" stroke-opacity="0.200000" points="530.1,-145.52 536.1,-143.42 530.1,-141.32 530.1,-145.52"/>
</g>
<!-- app/(protected) -->
<g id="node3" class="node">
<title>app/(protected)</title>
<g id="a_node3"><a xlink:href="app/(protected)" xlink:title="no&#45;orphans">
<polygon fill="#ccffcc" stroke="orange" points="95.3,-446.72 20.3,-446.72 18.23,-444.66 18.23,-428.12 93.24,-428.12 95.3,-430.19 95.3,-446.72"/>
<polyline fill="none" stroke="orange" points="93.24,-444.66 18.23,-444.66 "/>
<polyline fill="none" stroke="orange" points="93.24,-444.66 93.24,-428.12 "/>
<polyline fill="none" stroke="orange" points="93.24,-444.66 95.3,-446.72 "/>
<text text-anchor="middle" x="56.77" y="-434.72" font-family="Helvetica,sans-Serif" font-size="9.00" fill="orange">app/(protected)</text>
</a>
</g>
</g>
<!-- app/(protected)&#45;&gt;components/ui -->
<g id="edge3" class="edge">
<title>app/(protected)&#45;&gt;components/ui</title>
<path fill="none" stroke="#000000" stroke-width="2" stroke-opacity="0.200000" d="M90.94,-427.96C93.48,-426.15 95.75,-423.99 97.54,-421.42 107.3,-407.36 93.28,-125.37 105.54,-113.42 154.82,-65.4 348.92,-94.84 415.17,-113.42 427.1,-116.77 439,-123.89 448.12,-130.35"/>
<polygon fill="#000000" fill-opacity="0.200000" stroke="#000000" stroke-width="2" stroke-opacity="0.200000" points="447.07,-132.18 453.15,-134.05 449.56,-128.8 447.07,-132.18"/>
</g>
<!-- lib/auth.ts -->
<g id="node4" class="node">
<title>lib/auth.ts</title>
<g id="a_node4"><a xlink:href="lib/auth.ts" xlink:title="auth.ts">
<path fill="#ddfeff" stroke="black" d="M660.81,-214.72C660.81,-214.72 619.16,-214.72 619.16,-214.72 616.06,-214.72 612.96,-211.62 612.96,-208.52 612.96,-208.52 612.96,-202.32 612.96,-202.32 612.96,-199.22 616.06,-196.12 619.16,-196.12 619.16,-196.12 660.81,-196.12 660.81,-196.12 663.91,-196.12 667.01,-199.22 667.01,-202.32 667.01,-202.32 667.01,-208.52 667.01,-208.52 667.01,-211.62 663.91,-214.72 660.81,-214.72"/>
<text text-anchor="middle" x="639.99" y="-202.72" font-family="Helvetica,sans-Serif" font-size="9.00">lib/auth.ts</text>
</a>
</g>
</g>
<!-- app/(protected)&#45;&gt;lib/auth.ts -->
<g id="edge2" class="edge">
<title>app/(protected)&#45;&gt;lib/auth.ts</title>
<path fill="none" stroke="#000000" stroke-width="2" stroke-opacity="0.200000" d="M86.52,-428.03C147.87,-408.31 290.09,-364.42 340.38,-364.42 340.38,-364.42 340.38,-364.42 466.44,-364.42 500.96,-364.42 594.54,-307.14 599.73,-301.42 621.01,-277.95 631.58,-241.39 636.12,-220.83"/>
<polygon fill="#000000" fill-opacity="0.200000" stroke="#000000" stroke-width="2" stroke-opacity="0.200000" points="638.21,-221.05 637.38,-214.75 634.1,-220.19 638.21,-221.05"/>
</g>
<!-- components/access&#45;guard.tsx -->
<g id="node5" class="node">
<title>components/access&#45;guard.tsx</title>
<g id="a_node5"><a xlink:href="components/access-guard.tsx" xlink:title="access&#45;guard.tsx">
<path fill="#bbfeff" stroke="black" d="M245.42,-137.72C245.42,-137.72 122.71,-137.72 122.71,-137.72 119.61,-137.72 116.51,-134.62 116.51,-131.52 116.51,-131.52 116.51,-125.32 116.51,-125.32 116.51,-122.22 119.61,-119.12 122.71,-119.12 122.71,-119.12 245.42,-119.12 245.42,-119.12 248.52,-119.12 251.62,-122.22 251.62,-125.32 251.62,-125.32 251.62,-131.52 251.62,-131.52 251.62,-134.62 248.52,-137.72 245.42,-137.72"/>
<text text-anchor="middle" x="184.07" y="-125.72" font-family="Helvetica,sans-Serif" font-size="9.00">components/access&#45;guard.tsx</text>
</a>
</g>
</g>
<!-- app/(protected)&#45;&gt;components/access&#45;guard.tsx -->
<g id="edge4" class="edge">
<title>app/(protected)&#45;&gt;components/access&#45;guard.tsx</title>
<path fill="none" stroke="#000000" stroke-width="2" stroke-opacity="0.200000" d="M90.93,-427.95C93.48,-426.14 95.75,-423.99 97.54,-421.42 115.14,-396.16 85.75,-168.01 105.54,-144.42 107.27,-142.35 109.2,-140.5 111.29,-138.85"/>
<polygon fill="#000000" fill-opacity="0.200000" stroke="#000000" stroke-width="2" stroke-opacity="0.200000" points="112.63,-140.48 116.4,-135.37 110.26,-137.01 112.63,-140.48"/>
</g>
<!-- components/layout&#45;wrapper.tsx -->
<g id="node6" class="node">
<title>components/layout&#45;wrapper.tsx</title>
<g id="a_node6"><a xlink:href="components/layout-wrapper.tsx" xlink:title="layout&#45;wrapper.tsx">
<path fill="#bbfeff" stroke="black" d="M248.42,-199.72C248.42,-199.72 119.71,-199.72 119.71,-199.72 116.61,-199.72 113.51,-196.62 113.51,-193.52 113.51,-193.52 113.51,-187.32 113.51,-187.32 113.51,-184.22 116.61,-181.12 119.71,-181.12 119.71,-181.12 248.42,-181.12 248.42,-181.12 251.52,-181.12 254.63,-184.22 254.63,-187.32 254.63,-187.32 254.63,-193.52 254.63,-193.52 254.63,-196.62 251.52,-199.72 248.42,-199.72"/>
<text text-anchor="middle" x="184.07" y="-187.72" font-family="Helvetica,sans-Serif" font-size="9.00">components/layout&#45;wrapper.tsx</text>
</a>
</g>
</g>
<!-- app/(protected)&#45;&gt;components/layout&#45;wrapper.tsx -->
<g id="edge5" class="edge">
<title>app/(protected)&#45;&gt;components/layout&#45;wrapper.tsx</title>
<path fill="none" stroke="#000000" stroke-width="2" stroke-opacity="0.200000" d="M90.91,-427.93C93.46,-426.13 95.74,-423.98 97.54,-421.42 111.28,-401.87 90.09,-224.67 105.54,-206.42 106.4,-205.4 107.31,-204.43 108.27,-203.52"/>
<polygon fill="#000000" fill-opacity="0.200000" stroke="#000000" stroke-width="2" stroke-opacity="0.200000" points="110.04,-204.78 113.36,-199.36 107.39,-201.52 110.04,-204.78"/>
</g>
<!-- components/layouts -->
<g id="node7" class="node">
<title>components/layouts</title>
<g id="a_node7"><a xlink:href="components/layouts" xlink:title="layouts">
<polygon fill="#ffffcc" stroke="black" points="232.11,-168.72 138.09,-168.72 136.02,-166.66 136.02,-150.12 230.04,-150.12 232.11,-152.19 232.11,-168.72"/>
<polyline fill="none" stroke="black" points="230.04,-166.66 136.02,-166.66 "/>
<polyline fill="none" stroke="black" points="230.04,-166.66 230.04,-150.12 "/>
<polyline fill="none" stroke="black" points="230.04,-166.66 232.11,-168.72 "/>
<text text-anchor="middle" x="184.07" y="-156.72" font-family="Helvetica,sans-Serif" font-size="9.00">components/layouts</text>
</a>
</g>
</g>
<!-- app/(protected)&#45;&gt;components/layouts -->
<g id="edge6" class="edge">
<title>app/(protected)&#45;&gt;components/layouts</title>
<path fill="none" stroke="#000000" stroke-width="2" stroke-opacity="0.200000" d="M90.92,-427.94C93.47,-426.14 95.74,-423.98 97.54,-421.42 113.21,-399.01 87.92,-196.34 105.54,-175.42 111.84,-167.94 120.64,-163.38 130.05,-160.69"/>
<polygon fill="#000000" fill-opacity="0.200000" stroke="#000000" stroke-width="2" stroke-opacity="0.200000" points="130.64,-162.71 135.98,-159.26 129.65,-158.63 130.64,-162.71"/>
</g>
<!-- lib/db.ts -->
<g id="node9" class="node">
<title>lib/db.ts</title>
<g id="a_node9"><a xlink:href="lib/db.ts" xlink:title="db.ts">
<path fill="#ddfeff" stroke="black" d="M728.05,-136.72C728.05,-136.72 686.45,-136.72 686.45,-136.72 683.35,-136.72 680.25,-133.62 680.25,-130.52 680.25,-130.52 680.25,-124.32 680.25,-124.32 680.25,-121.22 683.35,-118.12 686.45,-118.12 686.45,-118.12 728.05,-118.12 728.05,-118.12 731.15,-118.12 734.25,-121.22 734.25,-124.32 734.25,-124.32 734.25,-130.52 734.25,-130.52 734.25,-133.62 731.15,-136.72 728.05,-136.72"/>
<text text-anchor="middle" x="707.25" y="-124.72" font-family="Helvetica,sans-Serif" font-size="9.00">lib/db.ts</text>
</a>
</g>
</g>
<!-- lib/auth.ts&#45;&gt;lib/db.ts -->
<g id="edge24" class="edge">
<title>lib/auth.ts&#45;&gt;lib/db.ts</title>
<path fill="none" stroke="#000000" stroke-width="2" stroke-opacity="0.200000" d="M648.99,-195.86C660.24,-182.41 680.84,-157.79 694.02,-142.04"/>
<polygon fill="#000000" fill-opacity="0.200000" stroke="#000000" stroke-width="2" stroke-opacity="0.200000" points="695.94,-143.01 698.18,-137.07 692.72,-140.32 695.94,-143.01"/>
</g>
<!-- components/common -->
<g id="node19" class="node">
<title>components/common</title>
<g id="a_node19"><a xlink:href="components/common" xlink:title="common">
<polygon fill="#ffffcc" stroke="black" points="392.42,-137.72 292.41,-137.72 290.34,-135.66 290.34,-119.12 390.35,-119.12 392.42,-121.19 392.42,-137.72"/>
<polyline fill="none" stroke="black" points="390.35,-135.66 290.34,-135.66 "/>
<polyline fill="none" stroke="black" points="390.35,-135.66 390.35,-119.12 "/>
<polyline fill="none" stroke="black" points="390.35,-135.66 392.42,-137.72 "/>
<text text-anchor="middle" x="341.38" y="-125.72" font-family="Helvetica,sans-Serif" font-size="9.00">components/common</text>
</a>
</g>
</g>
<!-- components/layouts&#45;&gt;components/common -->
<g id="edge19" class="edge">
<title>components/layouts&#45;&gt;components/common</title>
<path fill="none" stroke="#000000" stroke-width="2" stroke-opacity="0.200000" d="M232.09,-150.04C249.57,-146.55 269.53,-142.56 287.51,-138.98"/>
<polygon fill="#000000" fill-opacity="0.200000" stroke="#000000" stroke-width="2" stroke-opacity="0.200000" points="288.05,-141.01 293.52,-137.78 287.22,-136.89 288.05,-141.01"/>
</g>
<!-- app/[...slug] -->
<g id="node8" class="node">
<title>app/[...slug]</title>
<g id="a_node8"><a xlink:href="app/[...slug]" xlink:title="[...slug]">
<polygon fill="#ffffcc" stroke="black" points="87.8,-353.72 27.8,-353.72 25.74,-351.66 25.74,-335.12 85.73,-335.12 87.8,-337.19 87.8,-353.72"/>
<polyline fill="none" stroke="black" points="85.73,-351.66 25.74,-351.66 "/>
<polyline fill="none" stroke="black" points="85.73,-351.66 85.73,-335.12 "/>
<polyline fill="none" stroke="black" points="85.73,-351.66 87.8,-353.72 "/>
<text text-anchor="middle" x="56.77" y="-341.72" font-family="Helvetica,sans-Serif" font-size="9.00">app/[...slug]</text>
</a>
</g>
</g>
<!-- app/[...slug]&#45;&gt;components/ui -->
<g id="edge7" class="edge">
<title>app/[...slug]&#45;&gt;components/ui</title>
<path fill="none" stroke="#000000" stroke-width="2" stroke-opacity="0.200000" d="M85.25,-335.04C91.88,-332.82 98.95,-330.5 105.54,-328.42 242.43,-285.17 304.1,-327.39 415.17,-236.42 440.15,-215.96 454.12,-179.43 460.37,-158.77"/>
<polygon fill="#000000" fill-opacity="0.200000" stroke="#000000" stroke-width="2" stroke-opacity="0.200000" points="462.42,-159.25 462.07,-152.9 458.39,-158.08 462.42,-159.25"/>
</g>
<!-- app/[...slug]&#45;&gt;lib/db.ts -->
<g id="edge8" class="edge">
<title>app/[...slug]&#45;&gt;lib/db.ts</title>
<path fill="none" stroke="#000000" stroke-width="2" stroke-opacity="0.200000" d="M87.91,-336.87C91.68,-334.72 95.07,-331.97 97.54,-328.42 106.74,-315.19 94.37,-50.05 105.54,-38.42 178,37.03 235.76,-22.42 340.38,-22.42 340.38,-22.42 340.38,-22.42 564.21,-22.42 610.56,-22.42 630.52,-10.16 667.25,-38.42 690.77,-56.53 700.38,-91.79 704.09,-112.07"/>
<polygon fill="#000000" fill-opacity="0.200000" stroke="#000000" stroke-width="2" stroke-opacity="0.200000" points="702.04,-112.52 705.1,-118.09 706.18,-111.82 702.04,-112.52"/>
</g>
<!-- app/api -->
<g id="node10" class="node">
<title>app/api</title>
<g id="a_node10"><a xlink:href="app/api" xlink:title="api">
<polygon fill="#ffffcc" stroke="black" points="83.77,-384.72 31.83,-384.72 29.77,-382.66 29.77,-366.12 81.7,-366.12 83.77,-368.19 83.77,-384.72"/>
<polyline fill="none" stroke="black" points="81.7,-382.66 29.77,-382.66 "/>
<polyline fill="none" stroke="black" points="81.7,-382.66 81.7,-366.12 "/>
<polyline fill="none" stroke="black" points="81.7,-382.66 83.77,-384.72 "/>
<text text-anchor="middle" x="56.77" y="-372.72" font-family="Helvetica,sans-Serif" font-size="9.00">app/api</text>
</a>
</g>
</g>
<!-- app/api&#45;&gt;lib/auth.ts -->
<g id="edge9" class="edge">
<title>app/api&#45;&gt;lib/auth.ts</title>
<path fill="none" stroke="#000000" stroke-width="2" stroke-opacity="0.200000" d="M82.89,-366.1C87.82,-364.05 92.89,-361.78 97.54,-359.42 101.27,-357.52 101.55,-355.72 105.54,-354.42 205.06,-322.18 235.76,-338.42 340.38,-338.42 340.38,-338.42 340.38,-338.42 466.44,-338.42 543.27,-338.42 606.81,-254.68 629.78,-220.1"/>
<polygon fill="#000000" fill-opacity="0.200000" stroke="#000000" stroke-width="2" stroke-opacity="0.200000" points="631.59,-221.16 633.11,-214.99 628.08,-218.86 631.59,-221.16"/>
</g>
<!-- app/api&#45;&gt;lib/db.ts -->
<g id="edge10" class="edge">
<title>app/api&#45;&gt;lib/db.ts</title>
<path fill="none" stroke="#000000" stroke-width="2" stroke-opacity="0.200000" d="M83.9,-369.89C89.24,-367.54 94.22,-364.19 97.54,-359.42 107.05,-345.73 93.87,-71.33 105.54,-59.42 142.1,-22.11 288.14,-48.42 340.38,-48.42 340.38,-48.42 340.38,-48.42 564.21,-48.42 617.38,-48.42 669.24,-91.23 692.9,-113.82"/>
<polygon fill="#000000" fill-opacity="0.200000" stroke="#000000" stroke-width="2" stroke-opacity="0.200000" points="691.49,-115.37 697.25,-118.05 694.41,-112.36 691.49,-115.37"/>
</g>
<!-- app/globals.css -->
<g id="node11" class="node">
<title>app/globals.css</title>
<g id="a_node11"><a xlink:href="app/globals.css" xlink:title="globals.css">
<path fill="#ffffcc" stroke="black" d="M216.9,-508.72C216.9,-508.72 151.23,-508.72 151.23,-508.72 148.13,-508.72 145.03,-505.62 145.03,-502.52 145.03,-502.52 145.03,-496.32 145.03,-496.32 145.03,-493.22 148.13,-490.12 151.23,-490.12 151.23,-490.12 216.9,-490.12 216.9,-490.12 220,-490.12 223.1,-493.22 223.1,-496.32 223.1,-496.32 223.1,-502.52 223.1,-502.52 223.1,-505.62 220,-508.72 216.9,-508.72"/>
<text text-anchor="middle" x="184.07" y="-496.72" font-family="Helvetica,sans-Serif" font-size="9.00">app/globals.css</text>
</a>
</g>
</g>
<!-- app/layout.tsx -->
<g id="node12" class="node">
<title>app/layout.tsx</title>
<g id="a_node12"><a xlink:href="app/layout.tsx" xlink:title="layout.tsx">
<path fill="#bbfeff" stroke="black" d="M86.1,-508.72C86.1,-508.72 27.43,-508.72 27.43,-508.72 24.33,-508.72 21.23,-505.62 21.23,-502.52 21.23,-502.52 21.23,-496.32 21.23,-496.32 21.23,-493.22 24.33,-490.12 27.43,-490.12 27.43,-490.12 86.1,-490.12 86.1,-490.12 89.2,-490.12 92.3,-493.22 92.3,-496.32 92.3,-496.32 92.3,-502.52 92.3,-502.52 92.3,-505.62 89.2,-508.72 86.1,-508.72"/>
<text text-anchor="middle" x="56.77" y="-496.72" font-family="Helvetica,sans-Serif" font-size="9.00">app/layout.tsx</text>
</a>
</g>
</g>
<!-- app/layout.tsx&#45;&gt;app/globals.css -->
<g id="edge11" class="edge">
<title>app/layout.tsx&#45;&gt;app/globals.css</title>
<path fill="none" stroke="#000000" stroke-width="2" stroke-opacity="0.200000" d="M92.34,-499.42C106.54,-499.42 123.16,-499.42 138.27,-499.42"/>
<polygon fill="#000000" fill-opacity="0.200000" stroke="#000000" stroke-width="2" stroke-opacity="0.200000" points="138.64,-501.52 144.64,-499.42 138.64,-497.32 138.64,-501.52"/>
</g>
<!-- components/client&#45;layout.tsx -->
<g id="node13" class="node">
<title>components/client&#45;layout.tsx</title>
<g id="a_node13"><a xlink:href="components/client-layout.tsx" xlink:title="client&#45;layout.tsx">
<path fill="#bbfeff" stroke="black" d="M242.42,-230.72C242.42,-230.72 125.71,-230.72 125.71,-230.72 122.61,-230.72 119.51,-227.62 119.51,-224.52 119.51,-224.52 119.51,-218.32 119.51,-218.32 119.51,-215.22 122.61,-212.12 125.71,-212.12 125.71,-212.12 242.42,-212.12 242.42,-212.12 245.52,-212.12 248.62,-215.22 248.62,-218.32 248.62,-218.32 248.62,-224.52 248.62,-224.52 248.62,-227.62 245.52,-230.72 242.42,-230.72"/>
<text text-anchor="middle" x="184.07" y="-218.72" font-family="Helvetica,sans-Serif" font-size="9.00">components/client&#45;layout.tsx</text>
</a>
</g>
</g>
<!-- app/layout.tsx&#45;&gt;components/client&#45;layout.tsx -->
<g id="edge12" class="edge">
<title>app/layout.tsx&#45;&gt;components/client&#45;layout.tsx</title>
<path fill="none" stroke="#000000" stroke-width="2" stroke-opacity="0.200000" d="M90.91,-489.94C93.46,-488.13 95.74,-485.98 97.54,-483.42 111.66,-463.31 92.48,-283.24 105.54,-262.42 114.11,-248.76 128.86,-239.38 143.21,-233.09"/>
<polygon fill="#000000" fill-opacity="0.200000" stroke="#000000" stroke-width="2" stroke-opacity="0.200000" points="144.15,-234.97 148.89,-230.74 142.54,-231.09 144.15,-234.97"/>
</g>
<!-- components/loading&#45;indicator.tsx -->
<g id="node17" class="node">
<title>components/loading&#45;indicator.tsx</title>
<g id="a_node17"><a xlink:href="components/loading-indicator.tsx" xlink:title="loading&#45;indicator.tsx">
<path fill="#bbfeff" stroke="black" d="M408.75,-230.72C408.75,-230.72 274.01,-230.72 274.01,-230.72 270.91,-230.72 267.81,-227.62 267.81,-224.52 267.81,-224.52 267.81,-218.32 267.81,-218.32 267.81,-215.22 270.91,-212.12 274.01,-212.12 274.01,-212.12 408.75,-212.12 408.75,-212.12 411.85,-212.12 414.95,-215.22 414.95,-218.32 414.95,-218.32 414.95,-224.52 414.95,-224.52 414.95,-227.62 411.85,-230.72 408.75,-230.72"/>
<text text-anchor="middle" x="341.38" y="-218.72" font-family="Helvetica,sans-Serif" font-size="9.00">components/loading&#45;indicator.tsx</text>
</a>
</g>
</g>
<!-- components/client&#45;layout.tsx&#45;&gt;components/loading&#45;indicator.tsx -->
<g id="edge16" class="edge">
<title>components/client&#45;layout.tsx&#45;&gt;components/loading&#45;indicator.tsx</title>
<path fill="none" stroke="#000000" stroke-width="2" stroke-opacity="0.200000" d="M248.69,-221.42C252.91,-221.42 257.19,-221.42 261.47,-221.42"/>
<polygon fill="#000000" fill-opacity="0.200000" stroke="#000000" stroke-width="2" stroke-opacity="0.200000" points="261.74,-223.52 267.74,-221.42 261.74,-219.32 261.74,-223.52"/>
</g>
<!-- components/sidebar.tsx -->
<g id="node18" class="node">
<title>components/sidebar.tsx</title>
<g id="a_node18"><a xlink:href="components/sidebar.tsx" xlink:title="sidebar.tsx">
<path fill="#bbfeff" stroke="black" d="M390.73,-199.72C390.73,-199.72 292.03,-199.72 292.03,-199.72 288.93,-199.72 285.83,-196.62 285.83,-193.52 285.83,-193.52 285.83,-187.32 285.83,-187.32 285.83,-184.22 288.93,-181.12 292.03,-181.12 292.03,-181.12 390.73,-181.12 390.73,-181.12 393.83,-181.12 396.93,-184.22 396.93,-187.32 396.93,-187.32 396.93,-193.52 396.93,-193.52 396.93,-196.62 393.83,-199.72 390.73,-199.72"/>
<text text-anchor="middle" x="341.38" y="-187.72" font-family="Helvetica,sans-Serif" font-size="9.00">components/sidebar.tsx</text>
</a>
</g>
</g>
<!-- components/client&#45;layout.tsx&#45;&gt;components/sidebar.tsx -->
<g id="edge17" class="edge">
<title>components/client&#45;layout.tsx&#45;&gt;components/sidebar.tsx</title>
<path fill="none" stroke="#000000" stroke-width="2" stroke-opacity="0.200000" d="M232.09,-212.04C249.57,-208.55 269.53,-204.56 287.51,-200.98"/>
<polygon fill="#000000" fill-opacity="0.200000" stroke="#000000" stroke-width="2" stroke-opacity="0.200000" points="288.05,-203.01 293.52,-199.78 287.22,-198.89 288.05,-203.01"/>
</g>
<!-- app/page.tsx -->
<g id="node14" class="node">
<title>app/page.tsx</title>
<g id="a_node14"><a xlink:href="app/page.tsx" xlink:title="page.tsx">
<path fill="#bbfeff" stroke="black" d="M84.11,-322.72C84.11,-322.72 29.43,-322.72 29.43,-322.72 26.33,-322.72 23.23,-319.62 23.23,-316.52 23.23,-316.52 23.23,-310.32 23.23,-310.32 23.23,-307.22 26.33,-304.12 29.43,-304.12 29.43,-304.12 84.11,-304.12 84.11,-304.12 87.21,-304.12 90.31,-307.22 90.31,-310.32 90.31,-310.32 90.31,-316.52 90.31,-316.52 90.31,-319.62 87.21,-322.72 84.11,-322.72"/>
<text text-anchor="middle" x="56.77" y="-310.72" font-family="Helvetica,sans-Serif" font-size="9.00">app/page.tsx</text>
</a>
</g>
</g>
<!-- app/page.tsx&#45;&gt;components/ui -->
<g id="edge13" class="edge">
<title>app/page.tsx&#45;&gt;components/ui</title>
<path fill="none" stroke="#000000" stroke-width="2" stroke-opacity="0.200000" d="M90.55,-304.2C93.25,-302.34 95.66,-300.1 97.54,-297.42 112.4,-276.21 86.91,-82.42 105.54,-64.42 204.5,31.2 294.84,2.35 415.17,-64.42 439.55,-77.95 453.44,-109.12 459.91,-128.01"/>
<polygon fill="#000000" fill-opacity="0.200000" stroke="#000000" stroke-width="2" stroke-opacity="0.200000" points="457.97,-128.84 461.83,-133.9 461.97,-127.55 457.97,-128.84"/>
</g>
<!-- app/profile -->
<g id="node15" class="node">
<title>app/profile</title>
<g id="a_node15"><a xlink:href="app/profile" xlink:title="profile">
<polygon fill="#ffffcc" stroke="black" points="85.8,-477.72 29.81,-477.72 27.74,-475.66 27.74,-459.12 83.73,-459.12 85.8,-461.19 85.8,-477.72"/>
<polyline fill="none" stroke="black" points="83.73,-475.66 27.74,-475.66 "/>
<polyline fill="none" stroke="black" points="83.73,-475.66 83.73,-459.12 "/>
<polyline fill="none" stroke="black" points="83.73,-475.66 85.8,-477.72 "/>
<text text-anchor="middle" x="56.77" y="-465.72" font-family="Helvetica,sans-Serif" font-size="9.00">app/profile</text>
</a>
</g>
</g>
<!-- app/profile&#45;&gt;components/ui -->
<g id="edge15" class="edge">
<title>app/profile&#45;&gt;components/ui</title>
<path fill="none" stroke="#000000" stroke-width="2" stroke-opacity="0.200000" d="M85.91,-461.04C152.74,-442.1 322.33,-385.48 415.17,-277.42 445.54,-242.07 457.88,-186.34 462.29,-159.26"/>
<polygon fill="#000000" fill-opacity="0.200000" stroke="#000000" stroke-width="2" stroke-opacity="0.200000" points="464.41,-159.26 463.24,-153.02 460.26,-158.63 464.41,-159.26"/>
</g>
<!-- app/profile&#45;&gt;components/layout&#45;wrapper.tsx -->
<g id="edge14" class="edge">
<title>app/profile&#45;&gt;components/layout&#45;wrapper.tsx</title>
<path fill="none" stroke="#000000" stroke-width="2" stroke-opacity="0.200000" d="M85.92,-461.92C90.47,-459.64 94.63,-456.57 97.54,-452.42 113.21,-430.01 87.92,-227.34 105.54,-206.42 106.4,-205.4 107.31,-204.43 108.26,-203.51"/>
<polygon fill="#000000" fill-opacity="0.200000" stroke="#000000" stroke-width="2" stroke-opacity="0.200000" points="110.04,-204.77 113.35,-199.34 107.37,-201.52 110.04,-204.77"/>
</g>
<!-- app/simple&#45;login -->
<g id="node16" class="node">
<title>app/simple&#45;login</title>
<g id="a_node16"><a xlink:href="app/simple-login" xlink:title="simple&#45;login">
<polygon fill="#ccffcc" stroke="black" points="97.3,-291.72 18.3,-291.72 16.23,-289.66 16.23,-273.12 95.24,-273.12 97.3,-275.19 97.3,-291.72"/>
<polyline fill="none" stroke="black" points="95.24,-289.66 16.23,-289.66 "/>
<polyline fill="none" stroke="black" points="95.24,-289.66 95.24,-273.12 "/>
<polyline fill="none" stroke="black" points="95.24,-289.66 97.3,-291.72 "/>
<text text-anchor="middle" x="56.77" y="-279.72" font-family="Helvetica,sans-Serif" font-size="9.00">app/simple&#45;login</text>
</a>
</g>
</g>
<!-- components/loading&#45;indicator.tsx&#45;&gt;components/ui -->
<g id="edge20" class="edge">
<title>components/loading&#45;indicator.tsx&#45;&gt;components/ui</title>
<path fill="none" stroke="#000000" stroke-width="2" stroke-opacity="0.200000" d="M401.76,-212.04C406.46,-210.21 411,-208.03 415.17,-205.42 433.7,-193.86 448.21,-172.76 456.55,-158.42"/>
<polygon fill="#000000" fill-opacity="0.200000" stroke="#000000" stroke-width="2" stroke-opacity="0.200000" points="458.43,-159.37 459.54,-153.11 454.77,-157.31 458.43,-159.37"/>
</g>
<!-- components/common&#45;&gt;components/ui -->
<g id="edge18" class="edge">
<title>components/common&#45;&gt;components/ui</title>
<path fill="none" stroke="#000000" stroke-width="2" stroke-opacity="0.200000" d="M392.73,-134.61C402.53,-135.82 412.72,-137.07 422.22,-138.24"/>
<polygon fill="#000000" fill-opacity="0.200000" stroke="#000000" stroke-width="2" stroke-opacity="0.200000" points="422.15,-140.34 428.36,-138.99 422.67,-136.17 422.15,-140.34"/>
</g>
<!-- components/navigation.tsx -->
<g id="node20" class="node">
<title>components/navigation.tsx</title>
<g id="a_node20"><a xlink:href="components/navigation.tsx" xlink:title="navigation.tsx">
<path fill="#bbfeff" stroke="black" d="M396.24,-168.72C396.24,-168.72 286.52,-168.72 286.52,-168.72 283.42,-168.72 280.32,-165.62 280.32,-162.52 280.32,-162.52 280.32,-156.32 280.32,-156.32 280.32,-153.22 283.42,-150.12 286.52,-150.12 286.52,-150.12 396.24,-150.12 396.24,-150.12 399.34,-150.12 402.45,-153.22 402.45,-156.32 402.45,-156.32 402.45,-162.52 402.45,-162.52 402.45,-165.62 399.34,-168.72 396.24,-168.72"/>
<text text-anchor="middle" x="341.38" y="-156.72" font-family="Helvetica,sans-Serif" font-size="9.00">components/navigation.tsx</text>
</a>
</g>
</g>
<!-- components/navigation.tsx&#45;&gt;components/ui -->
<g id="edge21" class="edge">
<title>components/navigation.tsx&#45;&gt;components/ui</title>
<path fill="none" stroke="#000000" stroke-width="2" stroke-opacity="0.200000" d="M402.69,-151.52C409.27,-150.65 415.86,-149.79 422.15,-148.97"/>
<polygon fill="#000000" fill-opacity="0.200000" stroke="#000000" stroke-width="2" stroke-opacity="0.200000" points="422.66,-151.02 428.33,-148.16 422.11,-146.85 422.66,-151.02"/>
</g>
<!-- lib/utils.ts&#45;&gt;lib/auth.ts -->
<g id="edge25" class="edge">
<title>lib/utils.ts&#45;&gt;lib/auth.ts</title>
<path fill="none" stroke="#000000" stroke-width="2" stroke-dasharray="5,2" stroke-opacity="0.200000" d="M588.71,-152.73C592.56,-154.67 596.37,-156.91 599.73,-159.42 611.35,-168.14 621.88,-180.88 629.1,-190.74"/>
<polygon fill="#000000" fill-opacity="0.200000" stroke="#000000" stroke-width="2" stroke-opacity="0.200000" points="627.57,-192.2 632.76,-195.87 630.99,-189.77 627.57,-192.2"/>
</g>
<!-- lib/utils.ts&#45;&gt;lib/db.ts -->
<g id="edge26" class="edge">
<title>lib/utils.ts&#45;&gt;lib/db.ts</title>
<path fill="none" stroke="#000000" stroke-width="2" stroke-dasharray="5,2" stroke-opacity="0.200000" d="M590.27,-140.49C613.74,-137.84 648.36,-133.94 673.66,-131.09"/>
<polygon fill="#000000" fill-opacity="0.200000" stroke="#000000" stroke-width="2" stroke-opacity="0.200000" points="674.15,-133.15 679.88,-130.39 673.68,-128.98 674.15,-133.15"/>
</g>
<!-- lib/api&#45;client.ts -->
<g id="node22" class="node">
<title>lib/api&#45;client.ts</title>
<g id="a_node22"><a xlink:href="lib/api-client.ts" xlink:title="no&#45;orphans">
<path fill="#ccffcc" stroke="orange" d="M593.54,-183.72C593.54,-183.72 532.89,-183.72 532.89,-183.72 529.79,-183.72 526.69,-180.62 526.69,-177.52 526.69,-177.52 526.69,-171.32 526.69,-171.32 526.69,-168.22 529.79,-165.12 532.89,-165.12 532.89,-165.12 593.54,-165.12 593.54,-165.12 596.64,-165.12 599.74,-168.22 599.74,-171.32 599.74,-171.32 599.74,-177.52 599.74,-177.52 599.74,-180.62 596.64,-183.72 593.54,-183.72"/>
<text text-anchor="middle" x="563.21" y="-171.72" font-family="Helvetica,sans-Serif" font-size="9.00" fill="orange">lib/api&#45;client.ts</text>
</a>
</g>
</g>
<!-- lib/auth -->
<g id="node23" class="node">
<title>lib/auth</title>
<g id="a_node23"><a xlink:href="lib/auth" xlink:title="auth">
<polygon fill="#ffffcc" stroke="black" points="590.21,-214.72 538.28,-214.72 536.21,-212.66 536.21,-196.12 588.15,-196.12 590.21,-198.19 590.21,-214.72"/>
<polyline fill="none" stroke="black" points="588.15,-212.66 536.21,-212.66 "/>
<polyline fill="none" stroke="black" points="588.15,-212.66 588.15,-196.12 "/>
<polyline fill="none" stroke="black" points="588.15,-212.66 590.21,-214.72 "/>
<text text-anchor="middle" x="563.21" y="-202.72" font-family="Helvetica,sans-Serif" font-size="9.00">lib/auth</text>
</a>
</g>
</g>
<!-- lib/auth&#45;&gt;lib/auth.ts -->
<g id="edge23" class="edge">
<title>lib/auth&#45;&gt;lib/auth.ts</title>
<path fill="none" stroke="#000000" stroke-width="2" stroke-opacity="0.200000" d="M590.37,-205.42C595.57,-205.42 601.1,-205.42 606.49,-205.42"/>
<polygon fill="#000000" fill-opacity="0.200000" stroke="#000000" stroke-width="2" stroke-opacity="0.200000" points="606.72,-207.52 612.72,-205.42 606.72,-203.32 606.72,-207.52"/>
</g>
<!-- lib/types -->
<g id="node24" class="node">
<title>lib/types</title>
<g id="a_node24"><a xlink:href="lib/types" xlink:title="no&#45;orphans">
<polygon fill="#ccffcc" stroke="orange" points="590.21,-121.72 538.28,-121.72 536.21,-119.66 536.21,-103.12 588.15,-103.12 590.21,-105.19 590.21,-121.72"/>
<polyline fill="none" stroke="orange" points="588.15,-119.66 536.21,-119.66 "/>
<polyline fill="none" stroke="orange" points="588.15,-119.66 588.15,-103.12 "/>
<polyline fill="none" stroke="orange" points="588.15,-119.66 590.21,-121.72 "/>
<text text-anchor="middle" x="563.21" y="-109.72" font-family="Helvetica,sans-Serif" font-size="9.00" fill="orange">lib/types</text>
</a>
</g>
</g>
<!-- middleware.ts -->
<g id="node25" class="node">
<title>middleware.ts</title>
<g id="a_node25"><a xlink:href="middleware.ts" xlink:title="no&#45;orphans">
<path fill="#ccffcc" stroke="orange" d="M86.09,-561.72C86.09,-561.72 27.45,-561.72 27.45,-561.72 24.35,-561.72 21.25,-558.62 21.25,-555.52 21.25,-555.52 21.25,-549.32 21.25,-549.32 21.25,-546.22 24.35,-543.12 27.45,-543.12 27.45,-543.12 86.09,-543.12 86.09,-543.12 89.19,-543.12 92.29,-546.22 92.29,-549.32 92.29,-549.32 92.29,-555.52 92.29,-555.52 92.29,-558.62 89.19,-561.72 86.09,-561.72"/>
<text text-anchor="middle" x="56.77" y="-549.72" font-family="Helvetica,sans-Serif" font-size="9.00" fill="orange">middleware.ts</text>
</a>
</g>
</g>
</g>
</svg>
